<?xml version="1.0" encoding="UTF-8"?>
<!DOCTYPE svg PUBLIC "-//W3C//DTD SVG 1.1//EN" "http://www.w3.org/Graphics/SVG/1.1/DTD/svg11.dtd">
<svg xmlns="http://www.w3.org/2000/svg" version="1.1" width="500px" height="500px" style="shape-rendering:geometricPrecision; text-rendering:geometricPrecision; image-rendering:optimizeQuality; fill-rule:evenodd; clip-rule:evenodd" xmlns:xlink="http://www.w3.org/1999/xlink">
<g><path style="opacity:1" fill="#000000" d="M 28.5,7.5 C 175.989,7.33889 323.656,7.50555 471.5,8C 481.364,9.53078 487.864,15.0308 491,24.5C 491.667,174.5 491.667,324.5 491,474.5C 487.864,483.969 481.364,489.469 471.5,491C 323.5,491.667 175.5,491.667 27.5,491C 17.6363,489.469 11.1363,483.969 8,474.5C 7.33333,324.167 7.33333,173.833 8,23.5C 11.8487,14.1317 18.6821,8.79841 28.5,7.5 Z"/></g>
<g><path style="opacity:1" fill="#dcdcdc" d="M 67.5,158.5 C 125.071,158.169 182.571,158.502 240,159.5C 240.822,173.075 240.656,186.575 239.5,200C 183.834,200.5 128.168,200.667 72.5,200.5C 72.5,214.5 72.5,228.5 72.5,242.5C 128.168,242.333 183.834,242.5 239.5,243C 240.158,249.756 240.491,256.59 240.5,263.5C 240.491,270.41 240.158,277.244 239.5,284C 183.834,284.5 128.168,284.667 72.5,284.5C 72.5,312.5 72.5,340.5 72.5,368.5C 58.5,368.5 44.5,368.5 30.5,368.5C 30.3333,310.166 30.5,251.832 31,193.5C 35.5791,173.751 47.7458,162.085 67.5,158.5 Z"/></g>
<g><path style="opacity:1" fill="#dcdcdc" d="M 295.5,158.5 C 353.167,158.5 410.833,158.5 468.5,158.5C 468.5,172.5 468.5,186.5 468.5,200.5C 412.833,200.5 357.167,200.5 301.5,200.5C 301.5,242.5 301.5,284.5 301.5,326.5C 343.167,326.5 384.833,326.5 426.5,326.5C 426.5,312.5 426.5,298.5 426.5,284.5C 398.5,284.5 370.5,284.5 342.5,284.5C 342.5,270.5 342.5,256.5 342.5,242.5C 384.5,242.5 426.5,242.5 468.5,242.5C 468.667,272.502 468.5,302.502 468,332.5C 464.167,352.333 452.333,364.167 432.5,368C 386.5,368.667 340.5,368.667 294.5,368C 276.523,364.022 265.023,353.189 260,335.5C 258.374,289.192 258.041,242.859 259,196.5C 262.899,175.77 275.066,163.103 295.5,158.5 Z"/></g>
</svg>
