<?xml version="1.0" encoding="UTF-8"?>
<!DOCTYPE svg PUBLIC "-//W3C//DTD SVG 1.1//EN" "http://www.w3.org/Graphics/SVG/1.1/DTD/svg11.dtd">
<svg xmlns="http://www.w3.org/2000/svg" version="1.1" width="500px" height="500px" style="shape-rendering:geometricPrecision; text-rendering:geometricPrecision; image-rendering:optimizeQuality; fill-rule:evenodd; clip-rule:evenodd" xmlns:xlink="http://www.w3.org/1999/xlink">
<g><path style="opacity:1" fill="#fefefe" d="M 25.5,7.5 C 175.167,7.33333 324.834,7.5 474.5,8C 485.013,10.846 490.847,17.6793 492,28.5C 492.667,176.167 492.667,323.833 492,471.5C 490.275,482.225 484.108,488.725 473.5,491C 324.167,491.667 174.833,491.667 25.5,491C 14.923,488.676 8.75635,482.176 7,471.5C 6.33333,323.5 6.33333,175.5 7,27.5C 8.89683,16.7734 15.0635,10.1067 25.5,7.5 Z"/></g>
<g><path style="opacity:1" fill="#010101" d="M 239.5,158.5 C 239.5,172.5 239.5,186.5 239.5,200.5C 183.664,200.168 127.998,200.501 72.5,201.5C 72.5,215.167 72.5,228.833 72.5,242.5C 128.5,242.5 184.5,242.5 240.5,242.5C 240.5,256.5 240.5,270.5 240.5,284.5C 184.5,284.5 128.5,284.5 72.5,284.5C 72.5,312.5 72.5,340.5 72.5,368.5C 58.5,368.5 44.5,368.5 30.5,368.5C 30.3333,309.499 30.5,250.499 31,191.5C 36.0449,173.788 47.5449,162.954 65.5,159C 123.499,158.5 181.499,158.333 239.5,158.5 Z"/></g>
<g><path style="opacity:1" fill="#010101" d="M 468.5,200.5 C 412.5,200.5 356.5,200.5 300.5,200.5C 300.168,242.67 300.501,284.67 301.5,326.5C 343.167,326.5 384.833,326.5 426.5,326.5C 426.5,312.5 426.5,298.5 426.5,284.5C 398.593,284.172 370.759,284.505 343,285.5C 342.333,270.833 342.333,256.167 343,241.5C 384.761,242.497 426.594,242.83 468.5,242.5C 468.971,274.549 468.471,306.549 467,338.5C 461.558,354.276 450.724,364.109 434.5,368C 387.5,368.667 340.5,368.667 293.5,368C 276.299,364.466 265.132,354.299 260,337.5C 258.863,312.867 258.363,288.201 258.5,263.5C 258.363,238.799 258.863,214.133 260,189.5C 265.12,172.714 276.287,162.548 293.5,159C 351.832,158.5 410.166,158.333 468.5,158.5C 468.5,172.5 468.5,186.5 468.5,200.5 Z"/></g>
<g><path style="opacity:1" fill="#666666" d="M 239.5,158.5 C 240.496,172.657 240.829,186.99 240.5,201.5C 184.5,201.5 128.5,201.5 72.5,201.5C 127.998,200.501 183.664,200.168 239.5,200.5C 239.5,186.5 239.5,172.5 239.5,158.5 Z"/></g>
<g><path style="opacity:1" fill="#5c5c5c" d="M 468.5,200.5 C 413.002,201.499 357.336,201.832 301.5,201.5C 301.5,243.167 301.5,284.833 301.5,326.5C 300.501,284.67 300.168,242.67 300.5,200.5C 356.5,200.5 412.5,200.5 468.5,200.5 Z"/></g>
</svg>
