<?xml version="1.0" encoding="UTF-8"?>
<!DOCTYPE svg PUBLIC "-//W3C//DTD SVG 1.1//EN" "http://www.w3.org/Graphics/SVG/1.1/DTD/svg11.dtd">
<svg xmlns="http://www.w3.org/2000/svg" version="1.1" width="99px" height="99px" style="shape-rendering:geometricPrecision; text-rendering:geometricPrecision; image-rendering:optimizeQuality; fill-rule:evenodd; clip-rule:evenodd" xmlns:xlink="http://www.w3.org/1999/xlink">
<g><path style="opacity:0.969" fill="#25d366" d="M 3.5,0.5 C 33.8352,0.333353 64.1685,0.50002 94.5,1C 95.3081,1.30762 95.9747,1.80762 96.5,2.5C 97.6587,33.1246 97.8253,63.7913 97,94.5C 96.6924,95.3081 96.1924,95.9747 95.5,96.5C 64.8754,97.6587 34.2087,97.8253 3.5,97C 2.69194,96.6924 2.02527,96.1924 1.5,95.5C 0.341324,64.8754 0.174658,34.2087 1,3.5C 1.69794,2.30943 2.53128,1.30943 3.5,0.5 Z"/></g>
<g><path style="opacity:1" fill="#dcdcdc" d="M 11.5,31.5 C 23.1667,31.5 34.8333,31.5 46.5,31.5C 46.5,33.8333 46.5,36.1667 46.5,38.5C 35.5,38.5 24.5,38.5 13.5,38.5C 13.5,41.8333 13.5,45.1667 13.5,48.5C 24.5,48.5 35.5,48.5 46.5,48.5C 46.5,50.8333 46.5,53.1667 46.5,55.5C 35.5,55.5 24.5,55.5 13.5,55.5C 13.5,61.1667 13.5,66.8333 13.5,72.5C 10.8333,72.5 8.16667,72.5 5.5,72.5C 5.33346,60.4954 5.50013,48.4954 6,36.5C 7.07568,33.921 8.90902,32.2543 11.5,31.5 Z"/></g>
<g><path style="opacity:1" fill="#d8dcd8" d="M 59.5,63.5 C 67.6499,64.4927 75.9832,64.8261 84.5,64.5C 84.5,61.5 84.5,58.5 84.5,55.5C 78.8333,55.5 73.1667,55.5 67.5,55.5C 67.5,52.8333 67.5,50.1667 67.5,47.5C 75.8333,47.5 84.1667,47.5 92.5,47.5C 92.6662,53.8421 92.4995,60.1754 92,66.5C 91.3147,69.0573 89.8147,70.8906 87.5,72C 76.8333,72.6667 66.1667,72.6667 55.5,72C 53.6217,70.4571 52.1217,68.6238 51,66.5C 50.3333,56.5 50.3333,46.5 51,36.5C 51.9733,34.36 53.4733,32.6933 55.5,31.5C 67.783,30.5199 80.1164,30.1866 92.5,30.5C 92.5,33.5 92.5,36.5 92.5,39.5C 81.5,39.5 70.5,39.5 59.5,39.5C 59.5,47.5 59.5,55.5 59.5,63.5 Z"/></g>
<g><path style="opacity:1" fill="#c1dac6" d="M 11.5,31.5 C 23.3217,30.5049 35.3217,30.1716 47.5,30.5C 47.5,33.5 47.5,36.5 47.5,39.5C 36.5,39.5 25.5,39.5 14.5,39.5C 14.5,42.1667 14.5,44.8333 14.5,47.5C 25.5,47.5 36.5,47.5 47.5,47.5C 47.5,50.1667 47.5,52.8333 47.5,55.5C 47.1667,55.5 46.8333,55.5 46.5,55.5C 46.5,53.1667 46.5,50.8333 46.5,48.5C 35.5,48.5 24.5,48.5 13.5,48.5C 13.5,45.1667 13.5,41.8333 13.5,38.5C 24.5,38.5 35.5,38.5 46.5,38.5C 46.5,36.1667 46.5,33.8333 46.5,31.5C 34.8333,31.5 23.1667,31.5 11.5,31.5 Z"/></g>
<g><path style="opacity:1" fill="#9ad7a7" d="M 46.5,55.5 C 46.8333,55.5 47.1667,55.5 47.5,55.5C 36.6794,56.4946 25.6794,56.8279 14.5,56.5C 14.8214,62.0262 14.4881,67.3595 13.5,72.5C 13.5,66.8333 13.5,61.1667 13.5,55.5C 24.5,55.5 35.5,55.5 46.5,55.5 Z"/></g>
<g><path style="opacity:1" fill="#86d699" d="M 67.5,55.5 C 73.1667,55.5 78.8333,55.5 84.5,55.5C 84.5,58.5 84.5,61.5 84.5,64.5C 75.9832,64.8261 67.6499,64.4927 59.5,63.5C 67.5,63.5 75.5,63.5 83.5,63.5C 83.5,61.1667 83.5,58.8333 83.5,56.5C 77.9738,56.8214 72.6405,56.4881 67.5,55.5 Z"/></g>
</svg>
