<?xml version="1.0" encoding="UTF-8"?>
<!DOCTYPE svg PUBLIC "-//W3C//DTD SVG 1.1//EN" "http://www.w3.org/Graphics/SVG/1.1/DTD/svg11.dtd">
<svg xmlns="http://www.w3.org/2000/svg" version="1.1" width="429px" height="39px" style="shape-rendering:geometricPrecision; text-rendering:geometricPrecision; image-rendering:optimizeQuality; fill-rule:evenodd; clip-rule:evenodd" xmlns:xlink="http://www.w3.org/1999/xlink">
<g><path style="opacity:1" fill="#fefefe" d="M 1.5,3.5 C 10.8393,3.33355 20.1726,3.50021 29.5,4C 30.3333,4.83333 31.1667,5.66667 32,6.5C 32.6667,10.5 32.6667,14.5 32,18.5C 31.1667,19.3333 30.3333,20.1667 29.5,21C 22.5,21.3333 15.5,21.6667 8.5,22C 7.53632,26.0659 7.20299,30.2325 7.5,34.5C 5.5,34.5 3.5,34.5 1.5,34.5C 1.5,24.1667 1.5,13.8333 1.5,3.5 Z M 7.5,9.5 C 13.8333,9.5 20.1667,9.5 26.5,9.5C 26.5,11.5 26.5,13.5 26.5,15.5C 20.1667,15.5 13.8333,15.5 7.5,15.5C 7.5,13.5 7.5,11.5 7.5,9.5 Z"/></g>
<g><path style="opacity:1" fill="#dadada" d="M 35.5,3.5 C 37.5,3.5 39.5,3.5 41.5,3.5C 41.5045,7.53409 41.8379,11.5341 42.5,15.5C 48.5,15.5 54.5,15.5 60.5,15.5C 60.5,11.5 60.5,7.5 60.5,3.5C 62.8333,3.5 65.1667,3.5 67.5,3.5C 67.5,13.8333 67.5,24.1667 67.5,34.5C 65.1667,34.5 62.8333,34.5 60.5,34.5C 61.4656,30.887 61.7989,27.0537 61.5,23C 58.3529,21.8723 55.0196,21.3723 51.5,21.5C 48.2478,21.5207 45.0811,21.854 42,22.5C 41.8225,26.5126 41.9891,30.5126 42.5,34.5C 40.1667,34.5 37.8333,34.5 35.5,34.5C 35.5,24.1667 35.5,13.8333 35.5,3.5 Z"/></g>
<g><path style="opacity:1" fill="#e4e4e4" d="M 73.5,3.5 C 81.5069,3.33362 89.5069,3.50029 97.5,4C 98.3081,4.30762 98.9747,4.80762 99.5,5.5C 101.519,13.0252 102.019,20.6918 101,28.5C 100.727,30.3289 99.8932,31.8289 98.5,33C 90.6047,34.6011 82.6047,34.9345 74.5,34C 73.0692,33.5348 71.9025,32.7014 71,31.5C 69.443,24.2473 69.1097,16.914 70,9.5C 70.4238,6.97457 71.5905,4.97457 73.5,3.5 Z M 75.5,10.5 C 81.6446,9.50984 87.9779,9.1765 94.5,9.5C 94.5,15.8333 94.5,22.1667 94.5,28.5C 88.5,28.5 82.5,28.5 76.5,28.5C 76.8229,22.31 76.4896,16.31 75.5,10.5 Z"/></g>
<g><path style="opacity:1" fill="#fefefe" d="M 104.5,3.5 C 114.833,3.5 125.167,3.5 135.5,3.5C 135.5,5.5 135.5,7.5 135.5,9.5C 131.167,9.5 126.833,9.5 122.5,9.5C 122.5,17.8333 122.5,26.1667 122.5,34.5C 120.5,34.5 118.5,34.5 116.5,34.5C 116.5,26.1667 116.5,17.8333 116.5,9.5C 112.5,9.5 108.5,9.5 104.5,9.5C 104.5,7.5 104.5,5.5 104.5,3.5 Z"/></g>
<g><path style="opacity:1" fill="#fcfcfc" d="M 141.5,3.5 C 149.84,3.3336 158.173,3.50027 166.5,4C 167,4.5 167.5,5 168,5.5C 169.107,9.88783 169.607,14.3878 169.5,19C 172.333,32.1667 167.167,37.3333 154,34.5C 150.167,34.3333 146.333,34.1667 142.5,34C 141.584,33.6258 140.75,33.1258 140,32.5C 138.393,23.9362 138.06,15.2695 139,6.5C 140.045,5.62656 140.878,4.62656 141.5,3.5 Z M 144.5,9.5 C 150.833,9.5 157.167,9.5 163.5,9.5C 163.5,15.8333 163.5,22.1667 163.5,28.5C 157.167,28.5 150.833,28.5 144.5,28.5C 144.5,22.1667 144.5,15.8333 144.5,9.5 Z"/></g>
<g><path style="opacity:1" fill="#fbfbfb" d="M 192.5,3.5 C 201.833,3.5 211.167,3.5 220.5,3.5C 220.5,5.5 220.5,7.5 220.5,9.5C 212.167,9.5 203.833,9.5 195.5,9.5C 195.5,15.8333 195.5,22.1667 195.5,28.5C 201.833,28.5 208.167,28.5 214.5,28.5C 214.5,26.1667 214.5,23.8333 214.5,21.5C 210.167,21.5 205.833,21.5 201.5,21.5C 201.261,19.5328 201.594,17.6995 202.5,16C 208.491,15.5005 214.491,15.3338 220.5,15.5C 220.666,20.5111 220.499,25.5111 220,30.5C 219.626,31.4162 219.126,32.2496 218.5,33C 210.27,34.604 201.937,34.9373 193.5,34C 191.667,33.5 190.5,32.3333 190,30.5C 189.333,22.8333 189.333,15.1667 190,7.5C 190.662,6.01608 191.496,4.68275 192.5,3.5 Z"/></g>
<g><path style="opacity:1" fill="#fdfdfd" d="M 226.5,3.5 C 234.84,3.3336 243.173,3.50027 251.5,4C 252.333,4.83333 253.167,5.66667 254,6.5C 254.5,15.8274 254.666,25.1607 254.5,34.5C 252.5,34.5 250.5,34.5 248.5,34.5C 248.5,30.1667 248.5,25.8333 248.5,21.5C 242.167,21.5 235.833,21.5 229.5,21.5C 229.5,25.8333 229.5,30.1667 229.5,34.5C 227.5,34.5 225.5,34.5 223.5,34.5C 223.334,25.1607 223.5,15.8274 224,6.5C 225.045,5.62656 225.878,4.62656 226.5,3.5 Z M 229.5,9.5 C 235.833,9.5 242.167,9.5 248.5,9.5C 248.5,11.5 248.5,13.5 248.5,15.5C 242.167,15.5 235.833,15.5 229.5,15.5C 229.5,13.5 229.5,11.5 229.5,9.5 Z"/></g>
<g><path style="opacity:1" fill="#fcfcfc" d="M 257.5,3.5 C 259.5,3.5 261.5,3.5 263.5,3.5C 263.5,11.8333 263.5,20.1667 263.5,28.5C 271.833,28.5 280.167,28.5 288.5,28.5C 288.5,30.5 288.5,32.5 288.5,34.5C 279.113,34.8066 269.78,34.4733 260.5,33.5C 259.667,32.5 258.833,31.5 258,30.5C 257.5,21.5062 257.334,12.5062 257.5,3.5 Z"/></g>
<g><path style="opacity:1" fill="#fcfcfc" d="M 291.5,3.5 C 293.5,3.5 295.5,3.5 297.5,3.5C 297.5,11.8333 297.5,20.1667 297.5,28.5C 305.833,28.5 314.167,28.5 322.5,28.5C 322.5,30.5 322.5,32.5 322.5,34.5C 313.113,34.8066 303.78,34.4733 294.5,33.5C 293.667,32.5 292.833,31.5 292,30.5C 291.5,21.5062 291.334,12.5062 291.5,3.5 Z"/></g>
<g><path style="opacity:1" fill="#f0f0f0" d="M 329.5,3.5 C 338.833,3.5 348.167,3.5 357.5,3.5C 357.003,5.59716 356.67,7.43049 356.5,9C 348.167,9.33333 339.833,9.66667 331.5,10C 332.833,11.6667 332.833,13.3333 331.5,15C 339.833,15.3333 348.167,15.6667 356.5,16C 357.406,17.6995 357.739,19.5328 357.5,21.5C 349.16,21.3336 340.827,21.5003 332.5,22C 332.216,23.9562 332.216,26.1229 332.5,28.5C 340.833,28.5 349.167,28.5 357.5,28.5C 357.5,30.5 357.5,32.5 357.5,34.5C 348.494,34.6664 339.494,34.4998 330.5,34C 329.069,33.5348 327.903,32.7014 327,31.5C 325.443,24.2473 325.11,16.914 326,9.5C 326.424,6.97457 327.59,4.97457 329.5,3.5 Z"/></g>
<g><path style="opacity:1" fill="#e9e9e9" d="M 359.5,3.5 C 369.22,3.19241 378.887,3.52575 388.5,4.5C 391.945,9.13423 392.445,14.1342 390,19.5C 386.675,20.9436 383.175,21.9436 379.5,22.5C 381.95,27.6198 385.95,29.6198 391.5,28.5C 391.5,30.5 391.5,32.5 391.5,34.5C 388.482,34.6646 385.482,34.498 382.5,34C 377.866,30.3679 373.533,26.3679 369.5,22C 368.552,21.5172 367.552,21.3505 366.5,21.5C 366.108,25.5995 365.942,29.5995 366,33.5C 363.959,34.4231 361.792,34.7564 359.5,34.5C 359.5,24.1667 359.5,13.8333 359.5,3.5 Z M 365.5,9.5 C 372.2,9.16998 378.866,9.50331 385.5,10.5C 384.691,12.0709 384.357,13.7376 384.5,15.5C 378.5,15.5 372.5,15.5 366.5,15.5C 366.483,13.4352 366.15,11.4352 365.5,9.5 Z"/></g>
<g><path style="opacity:1" fill="#fdfdfd" d="M 394.5,3.5 C 396.5,3.5 398.5,3.5 400.5,3.5C 400.5,7.5 400.5,11.5 400.5,15.5C 406.833,15.5 413.167,15.5 419.5,15.5C 419.5,11.5 419.5,7.5 419.5,3.5C 421.5,3.5 423.5,3.5 425.5,3.5C 425.945,12.9402 425.445,22.2736 424,31.5C 423.167,32.3333 422.333,33.1667 421.5,34C 412.506,34.4998 403.506,34.6664 394.5,34.5C 394.5,32.5 394.5,30.5 394.5,28.5C 402.833,28.5 411.167,28.5 419.5,28.5C 419.756,26.2075 419.423,24.0408 418.5,22C 411.117,21.7998 403.784,21.2998 396.5,20.5C 395.808,19.9747 395.308,19.3081 395,18.5C 394.501,13.5111 394.334,8.51108 394.5,3.5 Z"/></g>
</svg>
